<svg width="20" height="20" viewBox="0 0 20 20" fill="none" xmlns="http://www.w3.org/2000/svg">
<g clip-path="url(#clip0_8706_30169)">
<circle cx="10" cy="10" r="10" fill="#4153B3"/>
<path d="M10 2C8.41775 2 6.87103 2.46919 5.55544 3.34824C4.23985 4.22729 3.21447 5.47672 2.60897 6.93853C2.00347 8.40034 1.84504 10.0089 2.15372 11.5607C2.4624 13.1126 3.22433 14.538 4.34315 15.6569C5.46197 16.7757 6.88743 17.5376 8.43928 17.8463C9.99113 18.155 11.5997 17.9965 13.0615 17.391C14.5233 16.7855 15.7727 15.7602 16.6518 14.4446C17.5308 13.129 18 11.5822 18 10C17.9959 7.87954 17.1517 5.84712 15.6523 4.34772C14.1529 2.84833 12.1205 2.00415 10 2ZM10 17.0588C8.6039 17.0588 7.23915 16.6448 6.07833 15.8692C4.91751 15.0936 4.01277 13.9911 3.4785 12.7013C2.94424 11.4115 2.80445 9.99217 3.07681 8.62289C3.34918 7.25361 4.02147 5.99585 5.00866 5.00866C5.99585 4.02146 7.25362 3.34918 8.62289 3.07681C9.99217 2.80444 11.4115 2.94423 12.7013 3.4785C13.9911 4.01276 15.0936 4.91751 15.8692 6.07833C16.6448 7.23914 17.0588 8.6039 17.0588 10C17.0567 11.8715 16.3124 13.6657 14.989 14.989C13.6657 16.3124 11.8715 17.0567 10 17.0588ZM11.098 13.7647C11.098 13.8895 11.0485 14.0092 10.9602 14.0975C10.872 14.1857 10.7523 14.2353 10.6275 14.2353H10C9.87519 14.2353 9.7555 14.1857 9.66725 14.0975C9.57899 14.0092 9.52941 13.8895 9.52941 13.7647V9.84314H9.37255C9.24774 9.84314 9.12805 9.79356 9.03979 9.7053C8.95154 9.61705 8.90196 9.49735 8.90196 9.37255C8.90196 9.24774 8.95154 9.12804 9.03979 9.03979C9.12805 8.95154 9.24774 8.90196 9.37255 8.90196H10C10.1248 8.90196 10.2445 8.95154 10.3328 9.03979C10.421 9.12804 10.4706 9.24774 10.4706 9.37255V13.2941H10.6275C10.7523 13.2941 10.872 13.3437 10.9602 13.4319C11.0485 13.5202 11.098 13.6399 11.098 13.7647ZM9.05883 6.54902C9.05883 6.3939 9.10482 6.24226 9.19101 6.11328C9.27719 5.9843 9.39968 5.88377 9.54299 5.82441C9.68631 5.76504 9.84401 5.74951 9.99615 5.77978C10.1483 5.81004 10.288 5.88474 10.3977 5.99443C10.5074 6.10411 10.5821 6.24386 10.6124 6.39601C10.6426 6.54815 10.6271 6.70585 10.5678 6.84916C10.5084 6.99248 10.4079 7.11497 10.2789 7.20115C10.1499 7.28733 9.99826 7.33333 9.84314 7.33333C9.63513 7.33333 9.43563 7.2507 9.28855 7.10361C9.14146 6.95652 9.05883 6.75703 9.05883 6.54902Z" fill="white" stroke="white" stroke-width="0.6"/>
</g>
<defs>
<clipPath id="clip0_8706_30169">
<rect width="20" height="20" fill="white"/>
</clipPath>
</defs>
</svg>
